<?xml version="1.0" encoding="utf-8"?>
<!-- Generator: Adobe Illustrator 22.0.0, SVG Export Plug-In . SVG Version: 6.00 Build 0)  -->
<svg version="1.1" id="Capa_1" xmlns="http://www.w3.org/2000/svg" xmlns:xlink="http://www.w3.org/1999/xlink" x="0px" y="0px"
	 viewBox="0 0 288.5 250.2" style="enable-background:new 0 0 288.5 250.2;" xml:space="preserve">
<style type="text/css">
	.st0{fill:#FFFFFF;}
</style>
<g>
	<path class="st0" d="M288.5,91.7c0,18.9,0,37.9,0,56.7c0,4.7-1.2,8.3-4.7,11.8c-21.2,21.3-42.6,42.6-65,63.9
		c-1.2,1.2-2.4,3.6-2.4,4.7c0,4.7,0,8.3,0,13s-2.4,7.1-7.1,7.1c-14.2,0-28.4,0-42.6,0c-4.7,0-7.1-2.4-7.1-7.1c0-16.5,0-34.3,0-50.9
		c0-7.1,2.4-13,7.1-17.7c27.2-27.2,54.4-54.4,81.6-81.6c3.6-3.6,9.4-4.7,14.2-2.4c4.7,2.4,7.1,7.1,7.1,11.8c0,3.6-2.4,5.9-4.7,8.3
		c-11.8,11.8-23.6,23.7-35.5,35.5l-1.2,1.2c-2.4,2.4-2.4,3.6,0,5.9c1.2,1.2,3.6,1.2,5.9-1.2c8.3-8.3,16.5-16.5,24.8-24.8
		c4.7-4.7,8.3-8.3,13-13c10.7-10.7,7.1-26.1-7.1-31.9c-1.2-1.2-2.4-1.2-2.4-2.4c0-15.4,0-30.8,0-46.2c0-7.1,5.9-13,11.8-13
		c7.1,0,11.8,5.9,11.8,13C288.5,52.7,288.5,72.8,288.5,91.7z"/>
	<path class="st0" d="M126.5,217.1c0,8.3,0,16.5,0,24.8c0,5.9-2.4,8.3-8.3,8.3c-13,0-27.2,0-40.2,0c-5.9,0-7.1-2.4-7.1-7.1
		s0-8.3,0-13c0-2.4-1.2-3.6-2.4-5.9c-21.3-21.3-42.6-42.6-63.8-63.9c-3.6-3.6-4.7-7.1-4.7-13c0-37.9,0-75.7,0-113.6
		c0-5.9,2.4-10.7,7.1-13c7.1-3.5,16.6,2.5,16.6,10.7c0,16.5,0,31.9,0,48.5c0,1.2-1.2,1.2-1.2,2.4c-7.1,2.4-10.7,8.3-11.8,15.4
		c-1.2,5.9,1.2,11.8,4.7,15.4c13,13,26,26.1,39,39c2.4,2.4,3.6,2.4,5.9,0c1.2-1.2,1.2-3.6-1.2-5.9c-11.8-13-24.8-24.8-37.9-37.9
		c-4.7-4.7-5.9-10.7-2.4-16.5c4.7-5.9,13-7.1,17.7-2.4c1.2,0,1.2,1.2,2.4,2.4c26,26.1,53.2,53.2,79.2,79.2
		c5.9,5.9,8.3,11.8,8.3,20.1C126.5,200.5,126.5,208.9,126.5,217.1L126.5,217.1z"/>
	<path class="st0" d="M173.7,97.6c-15.4,0-30.8,0-46.1,0c-4.7,0-7.1-2.4-5.9-7.1c1.2-3.6,1.2-8.3,3.6-11.8c2.4-5.9,7.1-10.7,13-13
		c4.7-2.4,10.7-2.4,15.4-1.2c1.2,0,1.2,1.2,2.4,1.2c9.4,9.4,26,9.4,35.5,0c0,0,1.2-1.2,2.4-1.2c7.1,0,13,0,18.9,2.4
		c4.7,2.4,8.3,5.9,10.7,11.8c1.2,3.6,2.4,8.3,3.6,13c1.2,3.6-1.2,5.9-4.7,5.9c-4.7,0-10.7,0-15.4,0
		C195.1,97.6,184.4,97.6,173.7,97.6z"/>
	<path class="st0" d="M150.1,58.6c0-1.2,0-1.2,0-1.2c0-9.4,0-20.1,0-29.5c0-3.6,1.2-8.3,2.4-11.8c2.4-8.3,8.3-13,16.5-14.2
		c4.7-1.2,10.7,0,15.4,1.2c8.3,3.6,11.8,9.4,11.8,17.7c1.2,5.9,1.2,13,1.2,18.9s0,11.8,0,18.9c-2.4,0-4.7,0-7.1,0
		c-1.2,0-2.4,1.2-2.4,1.2c-5.9,9.4-21.2,9.4-28.4,0c0-1.2-2.4-1.2-2.4-1.2C154.9,57.4,152.5,58.6,150.1,58.6z"/>
	<path class="st0" d="M143,29c0,13-4.7,22.5-10.7,31.9c-5.9,8.3-21.2,8.3-27.2-1.2c-4.7-7.1-8.3-15.4-9.4-23.7
		c-1.2-8.3,0-16.5,2.4-24.8c3.6-7.1,9.4-9.4,16.5-10.7c4.7-1.2,10.7,0,15.4,2.4c7.1,3.6,10.7,8.3,11.8,15.4
		C143,21.9,143,25.5,143,29z"/>
	<path class="st0" d="M114.7,97.6c-1.2,0-2.4,0-3.6,0c-13,0-26,0-39,0c-4.7,0-7.1-2.4-5.9-7.1c1.2-5.9,2.4-13,7.1-17.7
		c2.4-2.4,4.7-4.7,9.4-5.9c4.7-1.2,10.7-2.4,15.4-3.6c1.2,0,2.4,0,2.4,1.2c4.7,7.1,11.8,9.4,18.9,9.4
		C117,81.1,113.4,89.3,114.7,97.6z"/>
</g>
</svg>
