<?xml version="1.0" encoding="utf-8"?>
<!-- Generator: Adobe Illustrator 22.0.0, SVG Export Plug-In . SVG Version: 6.00 Build 0)  -->
<svg version="1.1" id="Capa_1" xmlns="http://www.w3.org/2000/svg" xmlns:xlink="http://www.w3.org/1999/xlink" x="0px" y="0px"
	 viewBox="0 0 300.1 250" style="enable-background:new 0 0 300.1 250;" xml:space="preserve">
<style type="text/css">
	.st0{fill:#FFFFFF;}
</style>
<g>
	<path class="st0" d="M134.3,125.7c-1.1-34.7,7.5-68.2,29.1-96.3c30.2-39,75.4-39,105.6-1.1c6.4,8.7,12.9,18.4,17.2,28.1
		c19.3,49.8,19.3,98.5-5.4,147.3c-5.4,9.8-11.8,18.4-19.3,26c-27,27.1-63.6,27.1-90.5,0c-23.7-23.8-33.4-54.1-36.6-86.6
		C133.3,137.7,134.3,132.3,134.3,125.7z M215.1,21.8c5.4,8.7,9.7,17.3,15,26c7.5-5.4,15-9.8,23.7-15.1c-3.2,10.8-5.4,19.4-7.5,28.1
		c-1.1,3.2,1.1,7.6,3.2,8.7c25.9,16.2,33.4,50.9,21.6,79c-4.3,9.8-8.6,19.4-12.9,29.2c-6.4,14.1-6.4,29.2,0,46.5
		c6.4-9.8,12.9-17.3,17.2-27.1c17.2-33.5,19.3-69.3,12.9-106.1c-5.4-26-15-49.8-34.5-68.2c-21.6-19.4-49.5-20.6-71.1-1.1
		C173,30.4,165.5,40.1,160,52c-17.2,33.5-20.5,69.3-12.9,107.2c5.4,26,15,48.8,34.5,67.1c19.4,18.3,44.2,20.6,64.7,7.6
		c4.3-3.2,6.4-6.4,4.3-11.9c-2.1-6.4-3.2-14.1-3.2-20.6c-1.1-16.2,5.4-30.3,12.9-43.3c6.4-13,11.8-27.1,10.7-42.2
		c-1.1-24.9-19.3-42.2-43.1-42.2c-6.4,0-12.9,1.1-19.3,0c-15-2.1-32.3,11.9-35.6,27.1c-2.1,8.7-6.4,17.3-9.7,24.9
		c-5.4,11.9-6.4,11.9,5.4,16.2c1.1,0,2.1,1.1,3.2,2.1c-1.1,4.3-2.1,8.7-4.3,14.1c4.3,1.1,6.4,2.1,9.7,2.1
		c-2.1,8.7-3.2,18.4-5.4,27.1c12.9,2.1,31.3-4.3,40.9-11.9c2.1-2.1,6.4-2.1,9.7-3.2c1.1,1.1,1.1,3.2,2.1,4.3
		c-6.4,5.4-12.9,10.8-21.6,16.2c1.1,7.6,3.2,17.3,5.4,26c2.1,6.4-1.1,8.7-6.4,7.6c-2.1-10.8-5.4-21.7-7.5-31.4
		c-25.9,2.1-28,2.1-29.1-3.2c-1.1-7.6,0-16.2,0-26c-4.3-2.1-9.7-5.4-5.4-14.1c1.1-1.1-1.1-4.3-2.1-5.4c-8.6-8.7-9.7-11.9-3.2-23.8
		c4.3-7.6,7.5-16.2,10.7-24.9c3.2-11.9,8.6-20.6,19.3-27.1c5.4-3.2,5.4-6.4,3.2-11.9c-3.2-8.7-5.4-17.3-7.5-28.1
		c8.6,5.4,16.1,10.8,23.7,15.1C205.4,38.1,210.7,30.5,215.1,21.8z M203.2,59.7c-4.3-2.1-7.5-4.3-11.8-6.4c2.1,5.4,2.1,8.7,4.3,13
		c10.7,0,22.7,0,33.4,0c9.7,0,9.7-1.1,9.7-11.9c-3.2,2.1-6.4,3.2-9.7,5.4c-4.3-6.4-7.5-13-11.8-20.6
		C210.7,46.7,207.5,52.2,203.2,59.7z"/>
	<path class="st0" d="M106.3,144.1c3.2-1.1,5.4-2.1,7.5-2.1c5.4-2.1,7.5-5.4,4.3-11.9c-5.4-9.8-9.7-20.6-12.9-31.4
		c-8.6-26-48.5-37.9-74.4-21.7c-20.5,13-29.1,37.9-20.5,61.8c3.2,9.8,8.6,19.4,12.9,29.2c9.7,19.4,10.7,40.1,1.1,61.8
		c-1.1-3.2-4.3-6.4-3.2-8.7c7.5-21.7,0-41.1-9.7-60.7C1.7,142-3.6,122.5,2.8,102C9.2,79.2,25.5,65.2,48,61.9
		c22.7-3.2,43.1,2.1,59.2,20.6c3.2,4.3,5.4,10.8,7.5,16.2c3.2,7.6,6.4,16.2,9.7,23.8c7.5,14.1,6.4,18.4-5.4,28.1
		c2.1,13,2.1,13-5.4,17.3c0,9.8,1.1,17.3,0,24.9c-2.1,7.6-10.7,7.6-17.2,5.4c-9.7-3.2-14,0-15,9.8c-1.1,6.4-3.2,14.1-4.3,21.7
		c-3.2-1.1-5.4-1.1-7.5-2.1c2.1-11.9,4.3-21.7,6.4-32.4c-7.5-5.4-14-10.8-21.6-16.2c1.1-1.1,1.1-3.2,2.1-4.3
		c3.2,1.1,7.5,1.1,9.7,3.2c11.8,9.8,25.9,11.9,40.9,14.1c-2.1-10.8-3.2-19.4-5.4-29.2c2.1-1.1,5.4-1.1,9.7-2.1
		C109.5,153.9,107.4,149.6,106.3,144.1z"/>
</g>
</svg>
