<?xml version="1.0" encoding="utf-8"?>
<!-- Generator: Adobe Illustrator 22.0.0, SVG Export Plug-In . SVG Version: 6.00 Build 0)  -->
<svg version="1.1" id="Capa_1" xmlns="http://www.w3.org/2000/svg" xmlns:xlink="http://www.w3.org/1999/xlink" x="0px" y="0px"
	 viewBox="0 0 666.5 249.9" style="enable-background:new 0 0 666.5 249.9;" xml:space="preserve">
<style type="text/css">
	.st0{fill:#FFFFFF;}
</style>
<g>
	<path class="st0" d="M632.4,152.9c-4.8-1.2-8.4-2.3-13.1-3.6c-7.2-2.3-14.3-2.3-19-9.5c-1.2-2.3-2.3-3.6-4.8-3.6l0,0
		c0-1.2,0-1.2,0-2.3c0,0,16.7,14.3,32.2,5.9c-13.1-4.8-19-57.1-19-57.1c1.2-4.8,1.2-8.4,3.6-13.1c1.2-2.3,1.2-4.8,0-5.9
		c-4.8-2.3-3.6-5.9-3.6-9.5c0-5.9,0-10.7-1.2-16.7c-1.2-15.5-9.5-26.2-25-31c-5.9-2.3-13.1-3.6-19-2.3c-16.7,2.3-32.2,8.4-36.9,26.2
		c-2.3,7.2-2.3,14.3-2.3,21.5c0,3.6,0,7.2-1.2,9.5c-2.3,3.6-2.3,5.9-2.3,9.5c1.2,4.8,1.2,8.4,2.3,13.1c0,3.6-2.3,45.3-17.9,52.4
		c15.5,9.5,31,0,31,0l0,0c0,1.2-1.2,3.6-3.6,5.9c-2.3,2.3-4.8,4.8-9.5,5.9c-9.5,3.6-20.2,5.9-29.7,9.5s-17.9,9.5-21.5,20.2
		c-7.2,21.5-5.9,26.2,10.7,40.5c1.2,1.2,3.6,3.6,5.9,4.8c16.7,12,34.5,21.5,56,23.8l1.2,1.2c47.6,7.2,87-8.4,119.1-44
		c1.2-1.2,2.3-2.3,1.2-4.8C664.6,174.3,655.1,157.6,632.4,152.9z"/>
	<path class="st0" d="M167.9,144.6c-13.1-3.6-26.2-7.2-36.9-17.9c-2.3-13.1-2.3-25,8.4-34.5c2.3-2.3,2.3-3.6,2.3-7.2
		c1.2-15.5-1.2-31,1.2-47.6c0-1.2,0-2.3,0-4.8c0-5.9-2.3-10.7-8.4-12c-1.2,0-2.3-1.2-2.3-2.3c-2.3-12-12-14.3-20.2-16.7
		c-15.5-4.8-29.7,2.3-44,9.5c-3.6,1.2-4.8,3.6-4.8,7.2c2.3,13.1-1.2,26.2,3.6,39.4c0,1.2,1.2,4.8,0,5.9c-4.8,7.2-1.2,14.3-1.2,22.6
		c0,2.3,1.2,3.6,2.3,4.8c7.2,4.8,7.2,13.1,9.5,21.5c-1.2,4.8,1.2,9.5-1.2,14.3c-1.2,1.2-3.6,2.3-4.8,3.6c-4.8,4.8-10.7,5.9-15.5,8.4
		c-8.4,3.6-17.9,5.9-26.2,9.5c-19,7-23.8,23.6-29.7,40.3c0,1.2,0,2.3,1.2,3.6c17.9,25,41.7,41.7,71.4,48.9l0,0
		c3.6,1.2,7.2,2.3,10.7,2.3c20.2,3.6,40.5,2.3,59.6-4.8c22.6-5.9,41.7-19,57.1-36.9c13.1-15.5,10.7-10.7,3.6-27.4
		C195.3,158.9,183.5,149.4,167.9,144.6z M127.4,149.4L127.4,149.4C128.7,149.4,128.7,149.4,127.4,149.4
		C128.7,149.4,127.4,149.4,127.4,149.4z M134.6,135L134.6,135L134.6,135L134.6,135z"/>
	<path class="st0" d="M394.2,141c-25,0-50,0-75,0c-13.1,0-27.4,0-40.5,0c-3.6,0-7.2,0-12,0c-5.9,0-9.5,3.6-9.5,9.5
		c0,4.8,0,9.5,0,15.5s2.3,9.5,8.4,9.5c14.3,0,29.7,0,44,0l0,0l0,0c28.6,0,56,0,84.5,0c5.9,0,8.4-3.6,8.4-8.4c0-4.8,0-10.7,0-15.5
		C404.9,143.3,402.6,141,394.2,141z"/>
	<path class="st0" d="M266.7,107.7c10.7,0,21.5,0,32.2,0l0,0c32.2,0,65.5,0,97.7,0c4.8,0,7.2-3.6,8.4-8.4c0-5.9,0-12,0-17.9
		c0-4.8-3.6-8.4-8.4-8.4c-25,0-50,0-75,0c-17.9,0-35.8,0-54.8,0c-5.9,0-8.4,2.3-8.4,9.5c0,4.8,0,10.7,0,15.5
		C258.5,105.2,262,107.7,266.7,107.7z"/>
</g>
</svg>
