<?xml version="1.0" encoding="utf-8"?>
<!-- Generator: Adobe Illustrator 22.0.0, SVG Export Plug-In . SVG Version: 6.00 Build 0)  -->
<svg version="1.1" id="Capa_1" xmlns="http://www.w3.org/2000/svg" xmlns:xlink="http://www.w3.org/1999/xlink" x="0px" y="0px"
	 viewBox="0 0 267.7 249.8" style="enable-background:new 0 0 267.7 249.8;" xml:space="preserve">
<style type="text/css">
	.st0{fill:#FFFFFF;}
</style>
<g>
	<path class="st0" d="M267.7,79.3c-5.2,14.5-9.4,28.9-14.6,42.3c-1.1,4.2-4.2,7.2-6.3,11.4c-2.1,4.2-5.2,6.2-10.4,4.2
		c-4.2-2-5.2-6.2-3.1-11.4c4.2-9.3,9.4-17.6,12.5-26.8c5.2-14.5,8.3-28.9,3.1-43.3c-7.2-21.7-23.8-33-44.6-39.2
		c-23.8-6.2-45.7-1.1-64.4,15.4c-6.3,5.1-8.3,5.1-15.5-1.1C94.3,5,46.6,10.2,23.7,41.2c-10.4,14.4-11.3,30.9-7.2,47.5
		c6.3,23.7,18.7,44.4,33.2,62.9c21.8,29.9,47.8,55.7,76.8,78.5c6.3,5.1,7.2,5.1,14.6,0c3.1-2,6.3-5.1,9.4-7.2
		c4.2-3.1,7.2-2,10.4,1.1c3.2,3.1,2.1,7.2-1.1,10.3c-5.2,4.2-9.4,8.3-14.6,11.4c-8.3,6.2-16.6,5.1-23.8-1.1
		c-12.5-10.3-26-21.7-37.4-33c-23.8-23.8-45.6-48.6-63.2-77.5C11.4,117.6,3.1,100,1.1,80.4c0-1.1-1.1-1.1-1.1-2C0,73.3,0,68.1,0,63
		c0-1.1,1.1-2,1.1-3.1C2.2,48.5,7.4,39.2,13.6,31C41.5-3,92.4-10.3,128.8,15.6c2.1,2,4.2,3.1,7.2,1.1C157.8,1.3,182.7-4,208.7,3.3
		c24.9,7.2,44.6,21.7,54,47.5c1.1,4.2,2.1,8.3,3.1,12.4C267.7,68,267.7,74.2,267.7,79.3z"/>
	<path class="st0" d="M172.2,194.9c-8.3,0-14.6,0-21.8,0c-7.2,0-10.4-3.1-10.4-10.3c0-8.3,0-17.6,0-25.8c0-7.2,2.1-9.3,9.4-9.3
		c7.2,0,14.6,0,22.9,0c0-7.2,0-14.5,0-21.7c0-8.3,2.1-10.3,10.4-10.3s16.6,0,26,0c8.3,0,10.4,2,10.4,10.3c0,7.2,0,13.4,0,21.7
		c7.2,0,14.6,0,20.8,0c9.4,0,10.4,2,10.4,10.3s0,16.5,0,25.8c0,7.2-3.1,9.3-9.4,9.3c-7.2,0-14.6,0-21.8,0c0,7.2,0,13.4,0,19.6
		c0,9.3-2.1,11.4-11.4,11.4c-8.3,0-16.6,0-23.8,0c-7.2,0-9.4-3.1-9.4-9.3C172.2,209.4,172.2,203.2,172.2,194.9z M202.3,211.4
		c0-7.2,0-14.5,0-20.7c0-8.3,2.1-11.4,11.4-11.4c7.2,0,13.5,0,20.8,0c0-5.1,0-10.3,0-15.4c-7.2,0-14.6,0-21.8,0
		c-7.2,0-10.4-2-10.4-9.3c0-7.2,0-14.5,0-21.7c-5.2,0-10.4,0-15.5,0c0,7.2,0,15.4,0,22.7c0,6.2-3.1,9.3-9.4,9.3
		c-7.2,0-14.6,0-22.9,0c0,5.1,0,10.3,0,15.4c7.2,0,14.6,0,20.8,0c7.2,0,10.4,3.1,10.4,10.3s0,14.5,0,21.7
		C191.9,211.4,197.1,211.4,202.3,211.4z"/>
</g>
</svg>
